<mxfile host="65bd71144e">
    <diagram id="2_nkSDu874REe1cV7-D0" name="PÃ¡gina-1">
        <mxGraphModel dx="851" dy="726" grid="1" gridSize="10" guides="1" tooltips="1" connect="1" arrows="1" fold="1" page="1" pageScale="1" pageWidth="1600" pageHeight="900" background="#ffffff" math="0" shadow="0">
            <root>
                <mxCell id="0"/>
                <mxCell id="1" parent="0"/>
            </root>
        </mxGraphModel>
    </diagram>
</mxfile>